<mxfile host="app.diagrams.net" agent="Mozilla/5.0 (Windows NT 10.0; Win64; x64) AppleWebKit/537.36 (KHTML, like Gecko) Chrome/131.0.0.0 Safari/537.36" version="26.0.5">
  <diagram id="C5RBs43oDa-KdzZeNtuy" name="Page-1">
    <mxGraphModel dx="2770" dy="1380" grid="1" gridSize="10" guides="1" tooltips="1" connect="1" arrows="1" fold="1" page="1" pageScale="1" pageWidth="3937" pageHeight="3937" math="0" shadow="0">
      <root>
        <mxCell id="WIyWlLk6GJQsqaUBKTNV-0" />
        <mxCell id="WIyWlLk6GJQsqaUBKTNV-1" parent="WIyWlLk6GJQsqaUBKTNV-0" />
        <mxCell id="w91RFXMXkyerHTZb2JvK-15" value="" style="edgeStyle=orthogonalEdgeStyle;rounded=0;orthogonalLoop=1;jettySize=auto;html=1;" edge="1" parent="WIyWlLk6GJQsqaUBKTNV-1" source="w91RFXMXkyerHTZb2JvK-3" target="w91RFXMXkyerHTZb2JvK-6">
          <mxGeometry relative="1" as="geometry" />
        </mxCell>
        <mxCell id="w91RFXMXkyerHTZb2JvK-3" value="เริ่ม" style="html=1;dashed=0;whiteSpace=wrap;shape=mxgraph.dfd.start;fontSize=16;" vertex="1" parent="WIyWlLk6GJQsqaUBKTNV-1">
          <mxGeometry x="260.02" y="100" width="95" height="40" as="geometry" />
        </mxCell>
        <mxCell id="w91RFXMXkyerHTZb2JvK-16" value="" style="edgeStyle=orthogonalEdgeStyle;rounded=0;orthogonalLoop=1;jettySize=auto;html=1;" edge="1" parent="WIyWlLk6GJQsqaUBKTNV-1" source="w91RFXMXkyerHTZb2JvK-6" target="w91RFXMXkyerHTZb2JvK-7">
          <mxGeometry relative="1" as="geometry" />
        </mxCell>
        <mxCell id="w91RFXMXkyerHTZb2JvK-6" value="ผู้ยืมติดต่อขอยืมอุปกรณ์ที่&lt;div&gt;รพ.สต.จอมหมอกแก้ว&lt;/div&gt;" style="rounded=0;whiteSpace=wrap;html=1;fontSize=16;" vertex="1" parent="WIyWlLk6GJQsqaUBKTNV-1">
          <mxGeometry x="194.36999999999998" y="180" width="226.25" height="70" as="geometry" />
        </mxCell>
        <mxCell id="w91RFXMXkyerHTZb2JvK-17" value="" style="edgeStyle=orthogonalEdgeStyle;rounded=0;orthogonalLoop=1;jettySize=auto;html=1;" edge="1" parent="WIyWlLk6GJQsqaUBKTNV-1" source="w91RFXMXkyerHTZb2JvK-7" target="w91RFXMXkyerHTZb2JvK-8">
          <mxGeometry relative="1" as="geometry" />
        </mxCell>
        <mxCell id="w91RFXMXkyerHTZb2JvK-7" value="ผู้ยืมเขียนใบคำร้องขอยืมพร้อมแนบ&lt;br&gt;หลักฐานการยืม&lt;div&gt;(สำเนาประชาชนผู้ป่วยและสำเนาบัตรประชาชนผู้ยืม)&lt;/div&gt;" style="rounded=0;whiteSpace=wrap;html=1;fontSize=16;" vertex="1" parent="WIyWlLk6GJQsqaUBKTNV-1">
          <mxGeometry x="156.86999999999998" y="290" width="301.25" height="100" as="geometry" />
        </mxCell>
        <mxCell id="w91RFXMXkyerHTZb2JvK-18" value="" style="edgeStyle=orthogonalEdgeStyle;rounded=0;orthogonalLoop=1;jettySize=auto;html=1;" edge="1" parent="WIyWlLk6GJQsqaUBKTNV-1" source="w91RFXMXkyerHTZb2JvK-8" target="w91RFXMXkyerHTZb2JvK-9">
          <mxGeometry relative="1" as="geometry" />
        </mxCell>
        <mxCell id="w91RFXMXkyerHTZb2JvK-8" value="&lt;font style=&quot;font-size: 16px;&quot;&gt;เจ้าหน้าที่ทำการตรวจประเมินถึง&lt;br&gt;ความเหมาะสมและสภาพอาการ&lt;br&gt;ของผู้ป่วยก่อนการยืม&lt;/font&gt;" style="rhombus;whiteSpace=wrap;html=1;" vertex="1" parent="WIyWlLk6GJQsqaUBKTNV-1">
          <mxGeometry x="130" y="420" width="355" height="130" as="geometry" />
        </mxCell>
        <mxCell id="w91RFXMXkyerHTZb2JvK-19" value="" style="edgeStyle=orthogonalEdgeStyle;rounded=0;orthogonalLoop=1;jettySize=auto;html=1;" edge="1" parent="WIyWlLk6GJQsqaUBKTNV-1" source="w91RFXMXkyerHTZb2JvK-9" target="w91RFXMXkyerHTZb2JvK-10">
          <mxGeometry relative="1" as="geometry" />
        </mxCell>
        <mxCell id="w91RFXMXkyerHTZb2JvK-9" value="&lt;font style=&quot;font-size: 16px;&quot;&gt;เจ้าหน้าที่เขียนลงทะเบียนไว้ในสมุดจด&lt;/font&gt;" style="rounded=0;whiteSpace=wrap;html=1;" vertex="1" parent="WIyWlLk6GJQsqaUBKTNV-1">
          <mxGeometry x="235.01" y="590" width="145" height="70" as="geometry" />
        </mxCell>
        <mxCell id="w91RFXMXkyerHTZb2JvK-20" value="" style="edgeStyle=orthogonalEdgeStyle;rounded=0;orthogonalLoop=1;jettySize=auto;html=1;" edge="1" parent="WIyWlLk6GJQsqaUBKTNV-1" source="w91RFXMXkyerHTZb2JvK-10" target="w91RFXMXkyerHTZb2JvK-11">
          <mxGeometry relative="1" as="geometry" />
        </mxCell>
        <mxCell id="w91RFXMXkyerHTZb2JvK-10" value="&lt;font style=&quot;font-size: 16px;&quot;&gt;เจ้าหน้าที่ทำการตรวจสอบอุปกรณ์ที่&lt;br&gt;ศูนย์กายอุปกรณ์ว่ามีอุปกรณ์ที่&lt;br&gt;ต้องการใช้งานหรือไม่&lt;/font&gt;" style="rhombus;whiteSpace=wrap;html=1;" vertex="1" parent="WIyWlLk6GJQsqaUBKTNV-1">
          <mxGeometry x="130" y="700" width="355" height="150" as="geometry" />
        </mxCell>
        <mxCell id="w91RFXMXkyerHTZb2JvK-21" value="" style="edgeStyle=orthogonalEdgeStyle;rounded=0;orthogonalLoop=1;jettySize=auto;html=1;" edge="1" parent="WIyWlLk6GJQsqaUBKTNV-1" source="w91RFXMXkyerHTZb2JvK-11" target="w91RFXMXkyerHTZb2JvK-12">
          <mxGeometry relative="1" as="geometry" />
        </mxCell>
        <mxCell id="w91RFXMXkyerHTZb2JvK-11" value="เจ้าหน้าที่เซ็นอนุมัติการยืมอุปกรณ์&lt;br&gt;ซึ่งผู้อนุมัติจะต้องเป็นตำแหน่ง &lt;br&gt;พยาบาลวิชาชีพ&lt;br&gt;หรือ นักวิชาการสาธารณสุข เท่านั้น" style="rounded=0;whiteSpace=wrap;html=1;fontSize=16;" vertex="1" parent="WIyWlLk6GJQsqaUBKTNV-1">
          <mxGeometry x="156.86999999999998" y="900" width="301.25" height="100" as="geometry" />
        </mxCell>
        <mxCell id="w91RFXMXkyerHTZb2JvK-22" value="" style="edgeStyle=orthogonalEdgeStyle;rounded=0;orthogonalLoop=1;jettySize=auto;html=1;" edge="1" parent="WIyWlLk6GJQsqaUBKTNV-1" source="w91RFXMXkyerHTZb2JvK-12" target="w91RFXMXkyerHTZb2JvK-14">
          <mxGeometry relative="1" as="geometry" />
        </mxCell>
        <mxCell id="w91RFXMXkyerHTZb2JvK-12" value="ผู้ยืมจะต้องติดต่อ นัดวันและเวลากับเจ้าหน้าที่&lt;br&gt;ให้มามารับอุปกรณ์ด้วยตนเอง ณ &lt;br&gt;รพ.สต. จอมหมอกแก้ว (*)" style="rounded=0;whiteSpace=wrap;html=1;fontSize=16;" vertex="1" parent="WIyWlLk6GJQsqaUBKTNV-1">
          <mxGeometry x="156.86999999999998" y="1060" width="301.25" height="100" as="geometry" />
        </mxCell>
        <mxCell id="w91RFXMXkyerHTZb2JvK-13" value="&lt;span style=&quot;font-family: Helvetica; font-size: 16px; font-style: normal; font-variant-ligatures: normal; font-variant-caps: normal; font-weight: 400; letter-spacing: normal; orphans: 2; text-align: center; text-indent: 0px; text-transform: none; widows: 2; word-spacing: 0px; -webkit-text-stroke-width: 0px; white-space: normal; text-decoration-thickness: initial; text-decoration-style: initial; text-decoration-color: initial; float: none; display: inline !important;&quot;&gt;&lt;font&gt;*สามารถยืมได้สูงสุด 3 เดือน หากต้องการยืมต่อ ผู้ยืมจะต้องทำการต่อสัญญา โดยการมาลงทะเบียนและประเมินผู้ป่วยใหม่อีกครั้ง&lt;/font&gt;&lt;/span&gt;" style="text;whiteSpace=wrap;html=1;" vertex="1" parent="WIyWlLk6GJQsqaUBKTNV-1">
          <mxGeometry x="90" y="1320" width="460" height="50" as="geometry" />
        </mxCell>
        <mxCell id="w91RFXMXkyerHTZb2JvK-14" value="&lt;font style=&quot;font-size: 16px;&quot;&gt;สิ้นสุด&lt;/font&gt;" style="html=1;dashed=0;whiteSpace=wrap;shape=mxgraph.dfd.start" vertex="1" parent="WIyWlLk6GJQsqaUBKTNV-1">
          <mxGeometry x="255.5" y="1220" width="104" height="40" as="geometry" />
        </mxCell>
        <mxCell id="w91RFXMXkyerHTZb2JvK-23" value="กรณีที่ 1 ขั้นตอนการยืมอุปกรณ์กับศูนย์กายอุปกรณ์ รพ.สต จอมหมอกแก้ว" style="text;html=1;align=center;verticalAlign=middle;whiteSpace=wrap;rounded=0;" vertex="1" parent="WIyWlLk6GJQsqaUBKTNV-1">
          <mxGeometry x="200" y="30" width="240" height="40" as="geometry" />
        </mxCell>
      </root>
    </mxGraphModel>
  </diagram>
</mxfile>
